<svg width="629" height="358" viewBox="0 0 629 358" fill="none" xmlns="http://www.w3.org/2000/svg">
<path d="M13.0083 252.378V212.536L99.6084 76.0813H135.012V130.168H114.472L63.7917 210.471V212.123H189.202V252.378H13.0083ZM115.091 287.472V240.198L116.123 222.754V76.0813H163.913V287.472H115.091ZM303.413 292.633C284.971 292.633 269.076 288.264 255.726 279.524C242.376 270.716 232.089 258.089 224.864 241.643C217.638 225.128 214.06 205.276 214.129 182.086C214.198 158.897 217.81 139.216 224.967 123.046C232.192 106.806 242.445 94.4541 255.726 85.9902C269.076 77.4575 284.971 73.1912 303.413 73.1912C321.854 73.1912 337.75 77.4575 351.1 85.9902C364.518 94.4541 374.84 106.806 382.065 123.046C389.29 139.285 392.869 158.966 392.8 182.086C392.8 205.345 389.187 225.232 381.962 241.747C374.737 258.261 364.449 270.888 351.1 279.628C337.819 288.298 321.923 292.633 303.413 292.633ZM303.413 250.83C314.423 250.83 323.334 245.222 330.146 234.005C336.959 222.72 340.331 205.414 340.262 182.086C340.262 166.81 338.713 154.217 335.617 144.309C332.52 134.331 328.22 126.899 322.715 122.013C317.21 117.128 310.776 114.685 303.413 114.685C292.472 114.685 283.629 120.224 276.886 131.303C270.142 142.313 266.736 159.241 266.667 182.086C266.598 197.569 268.078 210.403 271.105 220.587C274.202 230.771 278.537 238.375 284.111 243.398C289.685 248.353 296.119 250.83 303.413 250.83ZM419.482 252.378V212.536L506.082 76.0813H541.486V130.168H520.945L470.265 210.471V212.123H595.675V252.378H419.482ZM521.565 287.472V240.198L522.597 222.754V76.0813H570.387V287.472H521.565Z" fill="url(#paint0_linear_102_8)" fill-opacity="0.21"/>
<path d="M35.0055 246.906V207.064L121.606 70.6091H157.009V124.695H136.469L85.7889 204.999V206.651H211.199V246.906H35.0055ZM137.088 282V234.726L138.121 217.282V70.6091H185.911V282H137.088ZM325.41 287.161C306.968 287.161 291.073 282.791 277.723 274.052C264.374 265.244 254.086 252.617 246.861 236.171C239.636 219.656 236.057 199.804 236.126 176.614C236.195 153.424 239.808 133.744 246.964 117.573C254.189 101.334 264.442 88.9819 277.723 80.518C291.073 71.9853 306.968 67.7189 325.41 67.7189C343.852 67.7189 359.747 71.9853 373.097 80.518C386.515 88.9819 396.837 101.334 404.062 117.573C411.288 133.813 414.866 153.493 414.797 176.614C414.797 199.873 411.184 219.759 403.959 236.274C396.734 252.789 386.446 265.416 373.097 274.155C359.816 282.826 343.92 287.161 325.41 287.161ZM325.41 245.358C336.42 245.358 345.331 239.749 352.144 228.533C358.956 217.248 362.328 199.942 362.259 176.614C362.259 161.338 360.711 148.745 357.614 138.836C354.518 128.859 350.217 121.427 344.712 116.541C339.207 111.656 332.773 109.213 325.41 109.213C314.469 109.213 305.626 114.752 298.883 125.831C292.139 136.841 288.733 153.769 288.664 176.614C288.595 192.097 290.075 204.93 293.103 215.115C296.199 225.299 300.534 232.903 306.108 237.926C311.682 242.88 318.116 245.358 325.41 245.358ZM441.479 246.906V207.064L528.079 70.6091H563.483V124.695H542.942L492.262 204.999V206.651H617.672V246.906H441.479ZM543.562 282V234.726L544.594 217.282V70.6091H592.384V282H543.562Z" fill="url(#paint1_linear_102_8)"/>
<defs>
<linearGradient id="paint0_linear_102_8" x1="607.003" y1="139.29" x2="-27.1134" y2="181.817" gradientUnits="userSpaceOnUse">
<stop/>
<stop offset="1" stop-color="#9F9F9F"/>
</linearGradient>
<linearGradient id="paint1_linear_102_8" x1="629" y1="133.818" x2="-5.11623" y2="176.345" gradientUnits="userSpaceOnUse">
<stop/>
<stop offset="1" stop-color="#919191"/>
</linearGradient>
</defs>
</svg>
